<?xml version="1.0" standalone="no"?>
<!DOCTYPE svg PUBLIC "-//W3C//DTD SVG 20010904//EN"
 "http://www.w3.org/TR/2001/REC-SVG-20010904/DTD/svg10.dtd">
<svg version="1.0" xmlns="http://www.w3.org/2000/svg"
 width="402.000000pt" height="402.000000pt" viewBox="0 0 402.000000 402.000000"
 preserveAspectRatio="xMidYMid meet">
<metadata>
Created by potrace 1.14, written by Peter Selinger 2001-2017
</metadata>
<g transform="translate(0.000000,402.000000) scale(0.100000,-0.100000)"
fill="#000000" stroke="none">
<path d="M1795 3999 c-38 -5 -106 -16 -150 -25 -44 -9 -93 -18 -110 -21 -147
-25 -465 -166 -632 -279 -190 -129 -386 -313 -488 -458 -11 -16 -29 -40 -41
-55 -32 -41 -107 -168 -157 -267 -71 -142 -119 -280 -164 -469 -37 -158 -51
-488 -29 -655 33 -239 91 -432 190 -635 113 -229 236 -397 426 -581 268 -259
674 -460 1035 -514 44 -7 98 -15 120 -19 57 -11 347 -10 430 0 463 58 856 242
1173 552 334 326 546 752 599 1202 10 87 10 404 0 465 -4 25 -12 77 -18 115
-55 354 -252 750 -507 1018 -390 411 -894 632 -1450 634 -86 0 -188 -4 -227
-8z"/>
</g>
</svg>
