<?xml version="1.0" standalone="no"?>
<!DOCTYPE svg PUBLIC "-//W3C//DTD SVG 20010904//EN"
 "http://www.w3.org/TR/2001/REC-SVG-20010904/DTD/svg10.dtd">
<svg version="1.0" xmlns="http://www.w3.org/2000/svg"
 width="2480.000000pt" height="2480.000000pt" viewBox="0 0 2480.000000 2480.000000"
 preserveAspectRatio="xMidYMid meet">
<metadata>
Created by potrace 1.14, written by Peter Selinger 2001-2017
</metadata>
<g transform="translate(0.000000,2480.000000) scale(0.100000,-0.100000)"
fill="#000000" stroke="none">
<path d="M12006 21048 c-2 -7 -25 -438 -50 -957 -25 -520 -48 -946 -50 -949
-2 -2 -28 7 -58 21 -60 27 -120 48 -224 77 -66 18 -101 20 -458 20 -432 0
-472 -5 -621 -74 -38 -18 -95 -40 -125 -51 -30 -10 -77 -33 -104 -51 -76 -49
-81 -36 -26 69 80 151 95 220 95 427 0 153 -3 185 -23 254 -90 312 -291 548
-556 651 -124 49 -183 59 -336 58 -122 0 -160 -4 -240 -25 -86 -23 -1204 -442
-1223 -458 -7 -6 926 -2475 942 -2491 3 -4 80 22 171 57 91 35 168 64 172 64
3 0 0 -26 -7 -57 -41 -181 -100 -711 -110 -998 -5 -149 -7 -161 -27 -175 -369
-257 -782 -636 -1073 -985 -690 -827 -1118 -1839 -1241 -2935 -25 -224 -30
-776 -10 -1014 81 -936 381 -1805 893 -2586 537 -818 1285 -1487 2153 -1924
679 -343 1355 -535 2110 -601 203 -17 682 -20 876 -5 628 50 1257 203 1803
441 l134 58 18 -21 c14 -15 16 -25 9 -39 -15 -28 6 -33 39 -10 16 12 34 21 39
21 6 0 17 8 24 18 7 9 24 25 38 34 14 9 40 30 59 47 19 17 43 33 53 37 11 3
18 15 18 32 0 25 14 35 132 102 745 422 1413 1049 1881 1765 471 721 764 1547
863 2425 22 195 30 740 15 953 -50 681 -229 1363 -514 1960 -79 165 -76 134
-29 307 109 398 111 374 -31 670 -72 151 -170 239 -460 415 -71 43 -134 83
-140 89 -7 6 -38 28 -69 49 -31 21 -67 48 -80 59 -13 11 -32 28 -43 37 -32 25
-68 80 -100 151 -17 36 -49 99 -72 141 -36 66 -40 81 -34 112 5 19 11 39 14
43 3 5 19 81 37 169 17 88 41 201 51 250 34 153 34 155 10 155 -15 0 -30 -14
-49 -46 -35 -60 -151 -240 -211 -329 -39 -57 -52 -70 -72 -68 -114 10 -218 5
-269 -12 -30 -10 -57 -21 -60 -25 -3 -3 -26 -21 -51 -39 l-47 -33 -75 56 c-42
31 -140 98 -219 150 -582 381 -1245 657 -1928 804 -114 24 -176 42 -181 52
-10 20 -33 77 -49 120 -13 38 -13 37 -61 150 -27 63 -88 190 -165 340 -19 38
-125 198 -194 294 l-43 58 79 -6 c44 -3 183 -10 309 -16 127 -6 255 -13 286
-15 l55 -6 15 308 c9 169 15 309 15 309 -1 1 -227 13 -504 26 -276 14 -505 28
-508 31 -6 6 15 439 22 446 2 2 205 -6 450 -18 245 -12 447 -21 449 -19 1 2
30 577 30 609 0 0 -202 11 -448 24 -246 12 -450 24 -452 26 -4 5 15 352 20
358 2 2 221 -8 487 -21 266 -13 485 -23 488 -21 7 6 34 602 27 609 -6 6 -1476
83 -1595 84 -42 0 -64 -4 -66 -12z m887 -320 c263 -12 483 -26 490 -30 6 -4 8
-10 4 -14 -4 -4 -237 5 -519 19 -282 14 -514 24 -515 23 -3 -2 -52 -950 -49
-952 0 -1 215 -12 476 -24 261 -13 479 -27 484 -31 5 -5 7 -11 3 -15 -3 -3
-220 4 -481 17 -261 13 -477 21 -480 18 -2 -2 -12 -146 -20 -319 -9 -173 -19
-354 -22 -402 -6 -84 -15 -107 -28 -73 -3 9 14 417 39 908 25 490 45 896 45
900 0 5 21 6 48 3 26 -3 262 -15 525 -28z m-3315 -499 c132 -26 291 -145 376
-283 165 -267 147 -581 -45 -790 -27 -30 -70 -67 -94 -83 -25 -15 -45 -32 -45
-38 1 -8 141 -126 225 -189 17 -13 17 -15 3 -16 -9 0 -71 43 -138 95 l-121 96
-102 -40 c-56 -22 -243 -94 -415 -160 -173 -66 -316 -122 -320 -125 -3 -3 59
-175 138 -381 126 -333 152 -413 121 -379 -8 8 -738 1919 -743 1946 -3 11 567
236 806 319 131 45 222 52 354 28z m3385 -1566 c278 -13 357 -20 357 -30 0
-16 29 -16 -385 3 -252 13 -356 21 -370 31 -18 12 -18 13 10 13 17 0 191 -7
388 -17z m-3265 -50 l58 -48 -98 -137 c-54 -76 -98 -139 -98 -141 0 -2 -20
-38 -44 -80 l-43 -77 -73 192 c-40 105 -73 198 -74 206 -1 9 52 34 149 72 83
32 154 59 158 59 4 1 34 -20 65 -46z m4081 -1394 c554 -147 1077 -374 1556
-673 161 -100 365 -243 365 -255 0 -4 -19 -23 -42 -41 l-41 -34 -16 24 c-34
50 -149 165 -205 203 -50 34 -67 40 -112 41 -43 0 -58 -4 -79 -24 -53 -49 -69
-118 -45 -198 l9 -34 -27 18 c-384 253 -981 507 -1503 639 -57 15 -105 28
-107 30 -2 2 -24 61 -48 132 -24 70 -48 137 -53 148 -11 25 -41 104 -41 109 0
6 265 -52 389 -85z m-4605 -1045 c7 -216 7 -216 -15 -232 -80 -56 -311 -263
-459 -411 -182 -183 -318 -339 -466 -536 -47 -63 -93 -115 -100 -115 -8 0 -22
-4 -32 -9 -9 -5 -33 -16 -52 -24 -19 -8 -46 -20 -60 -26 -32 -14 -58 -31 -82
-53 -17 -17 -16 -18 22 -24 42 -7 50 -22 25 -48 -20 -20 -19 -29 4 -23 40 10
31 -32 -31 -136 -177 -297 -359 -706 -468 -1052 -12 -38 -31 -96 -41 -128 -11
-31 -19 -64 -19 -72 0 -8 -4 -23 -10 -33 -5 -9 -14 -39 -20 -67 -15 -67 -38
-171 -50 -220 -18 -71 -30 -138 -45 -233 -8 -51 -18 -98 -22 -105 -11 -17 -18
-305 -17 -697 0 -271 4 -391 17 -505 116 -998 477 -1869 1101 -2659 61 -77
110 -149 111 -161 0 -13 25 -49 55 -81 115 -123 349 -352 444 -434 125 -108
385 -308 501 -384 50 -33 92 -63 93 -68 2 -4 8 -8 13 -8 5 0 56 -29 113 -65
57 -36 106 -65 110 -65 3 0 25 -12 47 -26 59 -37 331 -174 347 -174 6 0 12 -4
12 -10 0 -5 5 -10 11 -10 6 0 45 -16 86 -35 41 -19 86 -38 99 -41 13 -3 27
-10 30 -15 3 -5 12 -9 21 -9 8 0 29 -6 46 -14 18 -8 64 -26 102 -41 39 -14 79
-30 90 -34 11 -5 45 -15 75 -24 30 -9 91 -27 135 -40 106 -32 151 -45 205 -58
25 -6 72 -17 105 -25 72 -18 81 -20 215 -44 178 -33 292 -50 331 -50 21 0 49
-4 62 -9 80 -31 937 -36 1182 -7 1494 174 2785 924 3642 2117 71 99 273 412
273 424 0 2 22 41 48 87 65 112 202 393 247 503 20 50 42 104 49 120 26 58 84
221 101 280 9 33 23 77 31 98 57 151 148 582 180 852 8 66 18 152 23 190 16
116 14 549 -3 589 -8 19 -17 69 -21 112 -32 386 -79 672 -161 984 -37 141
-136 443 -177 544 l-24 59 52 156 c29 86 61 183 71 216 9 33 21 64 26 70 4 5
8 19 8 32 0 13 3 23 8 23 4 0 36 -64 71 -142 272 -601 426 -1196 481 -1858 16
-194 14 -642 -4 -848 -67 -747 -264 -1417 -617 -2092 -375 -717 -947 -1371
-1623 -1854 -259 -186 -686 -440 -695 -415 -2 7 -11 2 -22 -12 -18 -23 -19
-23 -19 -3 0 17 -7 21 -40 22 -43 2 -48 -4 -25 -34 14 -18 14 -18 15 -1 0 10
5 17 12 15 17 -6 22 -28 7 -28 -7 0 -21 -8 -31 -17 -13 -12 -18 -13 -16 -4 2
7 -3 16 -11 19 -10 3 -13 -1 -9 -16 5 -17 -9 -27 -106 -70 -489 -221 -1013
-373 -1541 -446 -470 -65 -1060 -63 -1530 5 -2008 290 -3681 1604 -4418 3470
-200 506 -320 1025 -367 1589 -16 194 -14 642 4 848 130 1460 816 2780 1930
3708 111 92 336 264 347 264 3 0 9 -97 13 -216z m5674 -9271 c6 -19 -25 -16
-32 3 -4 11 -1 14 11 12 9 -2 18 -9 21 -15z"/>
<path d="M9315 20205 c-89 -19 -865 -317 -865 -331 0 -9 353 -943 425 -1126 4
-10 11 -18 17 -18 13 0 796 299 838 320 187 94 298 270 307 485 19 428 -334
755 -722 670z m201 -315 c60 -26 121 -91 157 -168 29 -61 32 -76 32 -162 0
-82 -3 -102 -25 -144 -14 -27 -41 -62 -61 -78 -45 -36 -522 -221 -528 -204 -2
6 -53 139 -113 295 -59 156 -108 287 -108 291 0 8 408 167 480 187 52 14 108
9 166 -17z"/>
<path d="M17610 11942 c0 -74 12 -132 27 -132 11 0 13 9 9 40 -3 22 -9 58 -12
80 -8 53 -24 61 -24 12z"/>
<path d="M10930 6980 c0 -5 5 -10 10 -10 6 0 10 5 10 10 0 6 -4 10 -10 10 -5
0 -10 -4 -10 -10z"/>
<path d="M15617 20453 c-35 -67 -1107 -2396 -1105 -2399 7 -6 1524 -704 1536
-707 12 -2 262 521 262 547 0 6 -205 105 -455 220 -250 115 -455 213 -455 218
0 5 41 98 91 208 l92 199 51 -24 c28 -12 213 -97 410 -189 198 -91 360 -165
361 -164 12 15 254 552 251 557 -2 3 -185 90 -405 191 -220 102 -401 190 -401
195 0 6 32 80 72 166 l72 157 51 -23 c27 -12 227 -104 444 -204 217 -100 397
-179 401 -174 12 13 250 534 250 546 0 7 -336 167 -748 356 -411 189 -750 346
-754 348 -4 2 -14 -9 -21 -24z m691 -609 c291 -134 469 -221 463 -227 -6 -6
-185 72 -468 203 -252 116 -463 214 -469 216 -7 3 -92 -171 -208 -421 -108
-234 -197 -430 -199 -436 -1 -8 554 -272 850 -404 13 -6 19 -15 15 -21 -5 -7
-152 56 -436 187 -236 110 -434 199 -440 199 -8 -1 -357 -740 -433 -919 l-12
-28 484 -224 c287 -132 485 -229 485 -237 0 -7 -3 -11 -7 -9 -5 2 -231 106
-504 232 l-495 228 435 944 c328 711 440 943 451 940 8 -2 228 -103 488 -223z"/>
<path d="M17870 17670 c-542 -478 -989 -875 -994 -883 -7 -11 47 -78 213 -265
122 -138 225 -253 229 -255 4 -3 137 110 295 250 158 140 292 253 297 251 14
-5 220 -242 220 -253 0 -5 -63 -200 -141 -432 l-140 -422 251 -286 c139 -157
255 -285 259 -285 4 0 24 15 44 33 36 31 41 44 179 502 78 259 142 471 143
472 0 1 21 -3 45 -9 80 -19 275 -13 373 10 348 85 636 361 729 698 32 118 32
347 0 458 -30 105 -78 206 -140 297 -55 82 -845 983 -865 986 -7 2 -455 -388
-997 -867z m1317 58 c153 -174 295 -345 316 -380 111 -186 109 -416 -5 -603
-98 -161 -279 -294 -457 -335 -155 -36 -344 3 -469 97 -17 13 -36 22 -41 18
-12 -7 -76 -201 -195 -589 -53 -170 -98 -311 -100 -314 -27 -26 4 89 124 469
77 244 140 450 140 456 0 7 -73 95 -162 196 -90 100 -223 251 -297 335 -90
103 -137 149 -145 143 -6 -5 -144 -126 -306 -270 -162 -143 -297 -255 -299
-249 -5 14 -34 -12 804 727 l760 670 27 -27 c14 -15 152 -169 305 -344z"/>
<path d="M18393 17662 c-254 -224 -461 -410 -460 -414 4 -14 538 -616 595
-670 102 -97 210 -145 348 -155 197 -14 406 84 543 255 169 210 186 485 43
696 -29 43 -598 697 -605 696 -1 -1 -210 -184 -464 -408z m633 -232 c183 -207
219 -265 218 -351 -2 -164 -182 -334 -354 -334 -110 0 -136 19 -333 242 -95
108 -172 199 -172 203 0 10 463 420 474 420 4 0 79 -81 167 -180z"/>
<path d="M5376 18084 c-78 -82 -97 -109 -93 -127 2 -12 242 -609 531 -1327
461 -1140 532 -1310 564 -1342 20 -21 39 -38 43 -38 11 0 453 470 457 485 2 7
-26 86 -62 175 l-65 163 27 33 c15 18 175 190 357 382 l329 349 175 -58 176
-59 21 22 c11 13 97 104 189 203 93 99 187 199 209 223 l40 42 -39 39 c-39 38
-81 52 -1395 490 -745 248 -1357 451 -1360 450 -3 0 -49 -47 -104 -105z m1184
-566 c465 -153 934 -308 1043 -344 158 -53 196 -69 187 -79 -9 -11 -48 -1
-203 51 -105 35 -194 64 -198 64 -13 0 -1014 -1073 -1011 -1084 2 -6 35 -93
74 -194 52 -135 68 -186 59 -195 -6 -6 -12 -9 -14 -6 -12 14 -833 2065 -830
2072 3 4 14 5 26 1 12 -4 402 -132 867 -286z"/>
<path d="M5720 17753 c0 -15 634 -1583 640 -1583 6 0 838 880 949 1002 24 27
42 51 39 53 -5 5 -1612 535 -1622 535 -3 0 -6 -3 -6 -7z m808 -571 c162 -54
294 -101 294 -106 0 -10 -343 -376 -352 -376 -4 0 -41 82 -83 183 -41 100 -96
230 -121 290 -24 59 -42 107 -38 107 4 0 139 -44 300 -98z"/>
<path d="M4175 15169 c-428 -62 -793 -393 -951 -864 -57 -171 -77 -319 -71
-520 3 -101 12 -200 22 -242 119 -536 506 -899 1088 -1025 83 -18 136 -22 287
-22 201 -1 266 8 415 55 187 59 342 156 496 309 243 242 385 555 420 927 26
272 -32 541 -162 751 -71 115 -210 259 -328 337 -105 69 -227 133 -237 123 -6
-7 -184 -631 -184 -647 0 -4 10 -12 23 -18 39 -18 139 -115 172 -168 63 -99
79 -157 79 -295 1 -104 -3 -138 -22 -200 -54 -174 -171 -314 -323 -389 -123
-60 -192 -75 -334 -74 -354 2 -667 208 -757 498 -63 200 4 476 154 640 74 80
186 140 293 157 39 6 75 12 80 13 9 2 186 614 185 641 0 6 -17 14 -37 18 -52
8 -235 5 -308 -5z m-11 -353 c-3 -8 -36 -25 -72 -37 -243 -80 -431 -260 -534
-511 -55 -136 -72 -227 -72 -393 0 -180 21 -278 89 -423 57 -120 114 -200 206
-287 147 -140 324 -230 551 -282 102 -23 357 -23 450 0 182 45 328 126 461
256 186 180 290 413 304 678 13 244 -60 452 -220 629 -33 36 -52 65 -48 72 14
23 129 -116 189 -228 233 -435 71 -1016 -361 -1298 -93 -61 -197 -105 -314
-134 -114 -28 -328 -30 -448 -4 -475 103 -783 395 -870 825 -24 117 -16 344
15 451 100 345 299 569 600 676 77 28 81 28 74 10z"/>
<path d="M20534 15060 c-237 -43 -463 -176 -568 -335 -130 -195 -150 -479 -62
-878 65 -296 62 -403 -15 -474 -79 -72 -181 -54 -273 48 -100 111 -161 293
-154 458 6 127 38 188 131 246 14 9 6 45 -78 318 -51 169 -95 311 -97 316 -4
12 -94 -19 -173 -59 -143 -73 -246 -183 -325 -345 -76 -156 -107 -324 -97
-515 19 -329 149 -658 354 -889 114 -129 299 -243 449 -277 113 -25 291 -16
404 21 169 55 301 137 378 237 144 188 166 432 80 908 -55 310 -56 402 -3 481
52 79 166 105 255 60 172 -88 283 -398 201 -559 -21 -42 -79 -98 -116 -112
l-23 -9 93 -306 c51 -168 96 -309 99 -312 9 -9 84 16 156 52 208 105 342 277
407 521 23 87 26 118 26 264 1 243 -36 400 -146 614 -133 260 -323 431 -562
506 -80 24 -257 35 -341 20z m241 -322 c66 -16 169 -76 234 -134 33 -31 87
-95 120 -144 165 -247 207 -572 101 -798 -31 -66 -85 -142 -101 -142 -16 0
-10 17 30 77 176 262 112 700 -139 953 -149 149 -307 198 -492 151 -153 -39
-260 -113 -316 -218 -69 -131 -68 -277 4 -618 58 -279 69 -451 36 -562 -40
-130 -126 -221 -264 -276 -179 -71 -338 -53 -489 55 -292 208 -454 687 -345
1013 24 70 101 205 127 220 16 11 9 -32 -10 -56 -86 -111 -128 -297 -110 -488
43 -451 365 -802 691 -751 176 27 317 126 370 259 33 85 31 271 -6 441 -65
297 -78 371 -83 472 -10 184 27 300 127 398 80 79 200 138 328 160 51 9 123 4
187 -12z"/>
<path d="M17878 9493 c-1 -16 -2 -37 -2 -47 -1 -11 -7 -21 -14 -24 -17 -5 -15
-22 3 -22 22 0 18 -16 -11 -46 -19 -18 -23 -28 -15 -33 9 -6 9 -15 1 -35 -15
-40 -13 -46 15 -46 14 0 25 -4 25 -10 0 -5 -9 -10 -19 -10 -26 0 -42 -52 -33
-105 6 -31 12 -41 30 -43 31 -5 27 -22 -5 -22 l-28 -1 28 -15 c29 -16 35 -30
15 -36 -9 -3 -9 -6 0 -12 7 -4 12 -2 12 3 0 6 7 11 15 11 13 0 15 36 15 260 0
224 -2 260 -15 260 -9 0 -16 -10 -17 -27z m-23 -342 c-3 -6 -11 -11 -17 -11
-6 0 -6 6 2 15 14 17 26 13 15 -4z"/>
<path d="M17020 8120 c0 -5 -5 -10 -12 -10 -6 0 -27 -12 -47 -27 -20 -16 -42
-27 -48 -25 -7 2 -13 -2 -13 -8 0 -5 5 -10 10 -10 6 0 10 -4 10 -10 0 -5 -7
-10 -15 -10 -8 0 -15 -9 -15 -20 0 -27 -18 -26 -22 2 -5 35 -28 34 -28 0 0
-17 -6 -37 -13 -44 -8 -7 -12 -19 -9 -27 3 -8 0 -11 -7 -7 -6 4 -11 2 -11 -3
0 -6 5 -11 11 -11 7 0 8 -11 4 -30 -5 -24 -3 -30 10 -30 12 0 15 6 10 23 -5
17 -4 19 4 7 9 -13 11 -13 11 2 0 9 -7 21 -15 25 -10 6 -11 13 -5 23 8 13 10
13 10 -1 0 -9 7 -19 15 -23 17 -6 21 -36 5 -36 -5 0 -12 -11 -16 -24 -3 -14
-12 -27 -20 -30 -18 -7 -18 -26 0 -26 8 0 16 -10 18 -22 2 -12 10 -23 18 -25
13 -4 13 -3 0 6 -8 5 -11 13 -7 17 4 4 13 2 19 -4 7 -7 22 -12 35 -12 14 0 23
-6 23 -15 0 -14 -23 -20 -64 -16 -18 1 -17 -1 4 -19 27 -24 34 -25 27 -6 -4
10 -1 13 7 10 8 -3 17 -1 21 5 3 6 15 11 26 11 10 0 19 5 19 10 0 6 -5 10 -11
10 -5 0 -8 4 -5 9 9 13 46 1 46 -15 0 -15 15 -19 23 -6 2 4 2 1 1 -5 -4 -15
15 -17 35 -4 12 8 12 14 1 41 -15 36 -5 50 38 50 27 0 97 66 112 105 21 55 12
93 -31 140 -23 25 -55 51 -72 60 -34 17 -87 20 -87 5z m127 -88 c19 -25 17
-66 -3 -58 -9 3 -22 6 -30 6 -8 0 -14 10 -14 24 0 24 -23 56 -41 56 -5 0 -9 4
-9 9 0 13 82 -18 97 -37z m-137 23 c0 -2 -10 -10 -22 -16 -21 -11 -22 -11 -9
4 13 16 31 23 31 12z m40 -52 c-1 -19 -16 -31 -29 -24 -7 5 -10 14 -7 20 8 12
36 15 36 4z m-184 -60 c-10 -10 -19 5 -10 18 6 11 8 11 12 0 2 -7 1 -15 -2
-18z m276 -26 c12 -1 14 -6 7 -18 -14 -26 -39 -32 -39 -9 0 11 -6 20 -14 20
-8 0 -18 5 -22 11 -5 9 1 10 22 5 16 -4 37 -8 46 -9z m-78 -65 c-1 -2 -13 0
-27 3 -18 5 -23 12 -20 26 5 19 6 19 27 -3 12 -13 21 -24 20 -26z m-197 -48
c-3 -3 -12 -4 -19 -1 -8 3 -5 6 6 6 11 1 17 -2 13 -5z m53 -3 c0 -5 -7 -11
-15 -15 -9 -3 -15 0 -15 9 0 8 7 15 15 15 8 0 15 -4 15 -9z m124 -47 c11 -29
6 -34 -14 -14 -24 24 -25 30 -6 30 8 0 17 -7 20 -16z"/>
<path d="M16810 8056 c-13 -37 -13 -36 5 -36 9 0 15 9 15 25 0 14 5 25 10 25
6 0 10 -5 10 -11 0 -13 29 -43 35 -37 3 2 -1 19 -7 36 -16 42 -53 41 -68 -2z"/>
<path d="M17110 7750 c0 -5 5 -10 10 -10 6 0 10 5 10 10 0 6 -4 10 -10 10 -5
0 -10 -4 -10 -10z"/>
<path d="M16666 7675 c-37 -41 -66 -81 -64 -88 5 -20 777 -731 798 -735 23 -4
153 140 148 165 -5 27 -769 732 -794 732 -13 1 -44 -25 -88 -74z m275 -382
c13 -16 12 -17 -3 -4 -17 13 -22 21 -14 21 2 0 10 -8 17 -17z"/>
<path d="M16963 7713 c-10 -3 -10 -8 1 -19 18 -17 32 -18 40 -1 5 10 7 10 12
0 6 -15 24 -18 24 -5 0 9 -45 33 -58 31 -4 0 -13 -3 -19 -6z"/>
<path d="M17110 7690 c0 -5 5 -10 10 -10 6 0 10 5 10 10 0 6 -4 10 -10 10 -5
0 -10 -4 -10 -10z"/>
<path d="M8029 7663 c-42 -110 -369 -1068 -367 -1074 5 -12 139 -119 149 -119
15 0 319 174 448 257 63 40 116 71 118 70 2 -2 -19 -62 -46 -133 -27 -71 -75
-211 -107 -311 l-58 -182 26 -20 c14 -11 44 -36 68 -56 23 -19 51 -35 62 -35
11 0 238 131 504 291 342 205 484 295 483 307 -1 23 -162 152 -189 152 -12 0
-156 -88 -321 -196 -165 -108 -302 -194 -305 -191 -2 2 52 158 121 346 69 187
125 347 125 355 0 17 -97 96 -118 96 -12 0 -325 -191 -598 -366 l-51 -32 134
344 c73 189 133 352 133 362 0 19 -167 162 -189 162 -6 0 -16 -12 -22 -27z"/>
<path d="M17043 7676 c-6 -8 -8 -19 -3 -27 10 -16 15 -12 24 19 8 24 -3 29
-21 8z"/>
<path d="M17020 7612 c0 -5 7 -13 16 -16 10 -4 14 -1 12 6 -5 15 -28 23 -28
10z"/>
<path d="M16238 7233 l-88 -66 0 -278 c0 -154 -4 -279 -8 -279 -5 0 -123 36
-263 80 -139 44 -259 78 -265 76 -6 -2 -53 -35 -103 -72 -61 -44 -91 -73 -89
-84 2 -9 145 -208 318 -443 211 -286 321 -427 333 -427 23 0 177 117 177 135
0 7 -94 141 -210 296 -115 156 -208 284 -207 286 2 1 111 -32 242 -73 185 -58
246 -74 265 -67 l25 8 5 274 5 274 214 -289 c117 -159 219 -290 227 -292 21
-5 185 119 182 137 -2 8 -145 207 -318 442 -234 318 -320 428 -335 428 -11 -1
-59 -30 -107 -66z"/>
<path d="M9337 6082 c-136 -263 -247 -484 -247 -490 0 -16 183 -107 201 -100
17 6 492 921 497 955 3 19 -10 29 -87 68 -50 25 -96 45 -104 45 -7 0 -124
-215 -260 -478z"/>
<path d="M14746 6312 c-198 -87 -361 -162 -363 -168 -2 -5 92 -228 208 -494
116 -267 213 -491 216 -498 4 -8 14 -11 27 -8 11 3 181 75 376 160 283 123
356 159 358 175 2 11 -13 58 -34 105 -30 71 -40 86 -59 86 -12 0 -136 -50
-275 -111 -139 -60 -256 -106 -261 -102 -4 4 -24 45 -43 90 -32 75 -34 84 -18
92 9 4 124 55 256 112 131 57 241 109 243 116 8 21 -70 193 -87 193 -8 0 -127
-49 -265 -109 -137 -60 -253 -106 -257 -103 -15 15 -78 176 -71 182 4 4 126
59 271 121 144 63 262 118 262 124 -1 5 -18 51 -39 100 -33 74 -43 90 -63 92
-12 1 -185 -69 -382 -155z"/>
<path d="M10120 6180 c-17 -50 -30 -96 -27 -103 2 -7 73 -34 156 -62 83 -27
151 -52 151 -56 0 -4 -61 -185 -135 -404 -74 -218 -135 -405 -135 -415 0 -14
21 -26 86 -49 91 -33 129 -38 137 -18 2 6 64 188 137 402 73 215 137 394 141
399 5 5 73 -13 160 -43 83 -29 155 -49 159 -44 13 14 60 153 60 178 0 19 -9
26 -47 40 -289 101 -780 265 -793 265 -13 0 -26 -24 -50 -90z"/>
<path d="M13921 6026 c-69 -15 -108 -29 -117 -41 -7 -10 -71 -118 -141 -241
-70 -122 -131 -219 -134 -216 -3 4 -23 90 -44 192 -21 102 -41 189 -45 193 -4
5 -55 -2 -114 -14 -102 -22 -106 -23 -106 -48 1 -34 214 -1038 223 -1047 8 -8
227 36 227 45 0 3 -20 98 -44 211 -25 113 -43 206 -41 208 1 2 113 -74 248
-168 l246 -170 133 28 c97 21 134 33 136 44 4 20 -22 40 -340 256 l-267 182
175 291 c95 160 174 297 174 305 0 20 -43 17 -169 -10z"/>
<path d="M11285 5878 c-8 -56 -115 -1028 -115 -1043 0 -10 218 -40 227 -31 2
2 15 97 27 210 13 114 25 209 27 210 2 2 112 -8 244 -23 l240 -27 -2 -29 c-1
-17 -12 -113 -23 -214 -12 -101 -20 -184 -18 -186 7 -5 222 -25 226 -20 6 6
122 1045 119 1070 -2 18 -14 21 -112 32 -60 7 -110 11 -111 10 -2 -1 -14 -100
-27 -220 -14 -120 -26 -220 -28 -221 -5 -5 -478 49 -483 55 -2 2 8 98 21 212
13 115 22 215 20 222 -3 7 -35 15 -84 19 -43 4 -92 9 -110 12 -31 6 -32 5 -38
-38z"/>
</g>
</svg>
